<svg width="128" height="128" viewBox="0 0 128 128" fill="none" xmlns="http://www.w3.org/2000/svg">
<circle cx="64" cy="64" r="55" fill="#333940"/>
<path d="M44.2671 101.224C44.2671 100.392 44.1071 99.976 43.7871 99.976L41.5791 101.032C41.5791 100.584 41.3231 100.264 40.8111 100.072L40.0431 99.976C39.5311 99.976 38.8911 100.2 38.1231 100.648C37.9951 100.328 37.8351 100.008 37.6431 99.688C37.4511 99.368 37.2911 99.08 37.1631 98.824C36.3311 97.224 35.4991 95.464 34.6671 93.544C33.8991 91.56 33.1631 89.672 32.4591 87.88C31.8191 86.088 31.3071 84.68 30.9231 83.656C30.6671 82.824 30.3791 81.576 30.0591 79.912C29.7391 78.248 29.4191 76.136 29.0991 73.576C29.8031 74.024 30.3471 74.248 30.7311 74.248C31.1791 74.248 31.5951 73.576 31.9791 72.232C32.1711 72.488 32.5231 72.616 33.0351 72.616C33.4191 72.616 33.7071 72.488 33.8991 72.232L35.4351 69.928L37.1631 70.504H37.2591C37.3871 70.504 37.5151 70.44 37.6431 70.312C37.7711 70.184 37.9631 70.056 38.2191 69.928C38.7311 69.608 39.1151 69.448 39.3711 69.448L39.6591 69.544C41.2591 70.312 42.2831 71.72 42.7311 73.768C43.8831 78.632 45.0351 81.064 46.1871 81.064C47.3391 81.064 48.6831 79.848 50.2191 77.416C50.9871 76.2 51.7551 74.792 52.5231 73.192C53.3551 71.592 54.1871 69.8 55.0191 67.816C55.1471 68.584 55.2751 68.968 55.4031 68.968C55.7231 68.968 56.2671 68.168 57.0351 66.568C57.8671 64.968 59.1791 62.76 60.9711 59.944C61.9951 58.216 63.2751 56.264 64.8111 54.088C66.4111 51.912 68.1071 49.672 69.8991 47.368C71.6911 45.064 73.4191 42.888 75.0831 40.84C76.8111 38.792 78.3471 37.032 79.6911 35.56C81.0351 34.088 82.0271 33.128 82.6671 32.68C85.0991 31.016 87.0191 29.416 88.4271 27.88C88.3631 28.328 88.2671 28.744 88.1391 29.128C88.0751 29.448 88.0431 29.672 88.0431 29.8C88.0431 30.056 88.1711 30.184 88.4271 30.184L91.1151 28.84V29.224C91.1151 29.736 91.2431 29.992 91.4991 29.992C91.6911 29.992 92.0751 29.704 92.6511 29.128C93.2271 28.552 93.5471 28.136 93.6111 27.88L93.4191 29.224L96.6831 27.304L95.9151 29.032C96.9391 28.328 97.6751 27.976 98.1231 27.976C98.3791 27.976 98.5711 28.136 98.6991 28.456C98.8271 28.712 98.8911 28.968 98.8911 29.224C98.8911 29.608 98.7311 30.056 98.4111 30.568C98.0911 31.08 97.6751 31.688 97.1631 32.392C96.7791 32.904 96.1391 33.672 95.2431 34.696C94.4111 35.656 93.1311 37.096 91.4031 39.016C89.6751 40.872 87.3711 43.464 84.4911 46.792C83.7231 47.624 82.5391 49.096 80.9391 51.208C79.3391 53.256 77.5151 55.656 75.4671 58.408C73.4831 61.096 71.4991 63.816 69.5151 66.568C67.5311 69.32 65.7711 71.816 64.2351 74.056C62.6991 76.232 61.6111 77.864 60.9711 78.952L55.0191 89.032C53.7391 91.208 52.6831 93 51.8511 94.408C51.0191 95.752 50.3791 96.68 49.9311 97.192C48.9711 98.344 47.9151 99.368 46.7631 100.264L45.8991 99.784L45.1311 100.264L44.2671 101.224Z" fill="#B6F2B6"/>
</svg>
